<svg xmlns="http://www.w3.org/2000/svg" version="1.1" xmlns:xlink="http://www.w3.org/1999/xlink" xmlns:svgjs="http://svgjs.dev/svgjs" viewBox="0 0 1422 800"><g fill="hsl(171.72,54.72%,79.22%)" transform="matrix(3.1,0,0,3.1,-1487.85,-837.9000000000001)"><circle r="1" cx="716" cy="400" opacity="0.10"></circle><circle r="1" cx="716" cy="402" opacity="0.10"></circle><circle r="1" cx="715" cy="405" opacity="0.10"></circle><circle r="1" cx="713" cy="406" opacity="0.10"></circle><circle r="1" cx="710" cy="407" opacity="0.11"></circle><circle r="1" cx="707" cy="406" opacity="0.11"></circle><circle r="1" cx="704" cy="404" opacity="0.11"></circle><circle r="1" cx="703" cy="400" opacity="0.11"></circle><circle r="1" cx="703" cy="397" opacity="0.11"></circle><circle r="1" cx="705" cy="393" opacity="0.11"></circle><circle r="1.5" cx="708" cy="391" opacity="0.12"></circle><circle r="1.5" cx="712" cy="390" opacity="0.12"></circle><circle r="1.5" cx="717" cy="391" opacity="0.12"></circle><circle r="1.5" cx="720" cy="394" opacity="0.12"></circle><circle r="1.5" cx="722" cy="399" opacity="0.12"></circle><circle r="1.5" cx="722" cy="404" opacity="0.12"></circle><circle r="1.5" cx="720" cy="408" opacity="0.12"></circle><circle r="1.5" cx="716" cy="412" opacity="0.13"></circle><circle r="1.5" cx="710" cy="413" opacity="0.13"></circle><circle r="1.5" cx="705" cy="412" opacity="0.13"></circle><circle r="1.5" cx="700" cy="408" opacity="0.13"></circle><circle r="1.5" cx="697" cy="403" opacity="0.13"></circle><circle r="1.5" cx="697" cy="396" opacity="0.13"></circle><circle r="1.5" cx="699" cy="390" opacity="0.13"></circle><circle r="1.5" cx="704" cy="386" opacity="0.14"></circle><circle r="1.5" cx="711" cy="384" opacity="0.14"></circle><circle r="1.5" cx="718" cy="385" opacity="0.14"></circle><circle r="1.5" cx="724" cy="389" opacity="0.14"></circle><circle r="1.5" cx="728" cy="396" opacity="0.14"></circle><circle r="1.5" cx="728" cy="403" opacity="0.14"></circle><circle r="1.5" cx="726" cy="411" opacity="0.15"></circle><circle r="1.5" cx="720" cy="416" opacity="0.15"></circle><circle r="1.5" cx="712" cy="419" opacity="0.15"></circle><circle r="1.5" cx="704" cy="418" opacity="0.15"></circle><circle r="1.5" cx="696" cy="414" opacity="0.15"></circle><circle r="1.5" cx="692" cy="406" opacity="0.15"></circle><circle r="1.5" cx="690" cy="397" opacity="0.15"></circle><circle r="1.5" cx="693" cy="388" opacity="0.16"></circle><circle r="1.5" cx="699" cy="382" opacity="0.16"></circle><circle r="1.5" cx="708" cy="378" opacity="0.16"></circle><circle r="1.5" cx="718" cy="379" opacity="0.16"></circle><circle r="1.5" cx="727" cy="383" opacity="0.16"></circle><circle r="1.5" cx="733" cy="392" opacity="0.16"></circle><circle r="1.5" cx="735" cy="402" opacity="0.16"></circle><circle r="1.5" cx="732" cy="412" opacity="0.17"></circle><circle r="1.5" cx="725" cy="420" opacity="0.17"></circle><circle r="1.5" cx="716" cy="425" opacity="0.17"></circle><circle r="1.5" cx="704" cy="425" opacity="0.17"></circle><circle r="1.5" cx="694" cy="420" opacity="0.17"></circle><circle r="1.5" cx="687" cy="411" opacity="0.17"></circle><circle r="1.5" cx="684" cy="400" opacity="0.18"></circle><circle r="1.5" cx="686" cy="388" opacity="0.18"></circle><circle r="1.5" cx="693" cy="378" opacity="0.18"></circle><circle r="1.5" cx="704" cy="373" opacity="0.18"></circle><circle r="1.5" cx="717" cy="372" opacity="0.18"></circle><circle r="1.5" cx="728" cy="377" opacity="0.18"></circle><circle r="1.5" cx="737" cy="386" opacity="0.18"></circle><circle r="1.5" cx="741" cy="398" opacity="0.19"></circle><circle r="1.5" cx="739" cy="412" opacity="0.19"></circle><circle r="2" cx="732" cy="423" opacity="0.19"></circle><circle r="2" cx="720" cy="430" opacity="0.19"></circle><circle r="2" cx="707" cy="432" opacity="0.19"></circle><circle r="2" cx="693" cy="427" opacity="0.19"></circle><circle r="2" cx="683" cy="417" opacity="0.20"></circle><circle r="2" cx="678" cy="404" opacity="0.20"></circle><circle r="2" cx="679" cy="389" opacity="0.20"></circle><circle r="2" cx="686" cy="376" opacity="0.20"></circle><circle r="2" cx="699" cy="368" opacity="0.20"></circle><circle r="2" cx="714" cy="365" opacity="0.20"></circle><circle r="2" cx="728" cy="369" opacity="0.20"></circle><circle r="2" cx="740" cy="379" opacity="0.21"></circle><circle r="2" cx="747" cy="394" opacity="0.21"></circle><circle r="2" cx="746" cy="410" opacity="0.21"></circle><circle r="2" cx="739" cy="424" opacity="0.21"></circle><circle r="2" cx="727" cy="434" opacity="0.21"></circle><circle r="2" cx="710" cy="438" opacity="0.21"></circle><circle r="2" cx="694" cy="435" opacity="0.21"></circle><circle r="2" cx="681" cy="424" opacity="0.22"></circle><circle r="2" cx="673" cy="409" opacity="0.22"></circle><circle r="2" cx="672" cy="392" opacity="0.22"></circle><circle r="2" cx="679" cy="376" opacity="0.22"></circle><circle r="2" cx="692" cy="364" opacity="0.22"></circle><circle r="2" cx="709" cy="359" opacity="0.22"></circle><circle r="2" cx="727" cy="362" opacity="0.23"></circle><circle r="2" cx="742" cy="372" opacity="0.23"></circle><circle r="2" cx="752" cy="388" opacity="0.23"></circle><circle r="2" cx="753" cy="406" opacity="0.23"></circle><circle r="2" cx="747" cy="424" opacity="0.23"></circle><circle r="2" cx="734" cy="437" opacity="0.23"></circle><circle r="2" cx="716" cy="444" opacity="0.23"></circle><circle r="2" cx="697" cy="442" opacity="0.24"></circle><circle r="2" cx="680" cy="432" opacity="0.24"></circle><circle r="2" cx="668" cy="416" opacity="0.24"></circle><circle r="2" cx="665" cy="396" opacity="0.24"></circle><circle r="2" cx="671" cy="377" opacity="0.24"></circle><circle r="2" cx="684" cy="362" opacity="0.24"></circle><circle r="2" cx="703" cy="353" opacity="0.24"></circle><circle r="2" cx="724" cy="354" opacity="0.25"></circle><circle r="2" cx="742" cy="363" opacity="0.25"></circle><circle r="2" cx="755" cy="380" opacity="0.25"></circle><circle r="2" cx="760" cy="401" opacity="0.25"></circle><circle r="2" cx="755" cy="422" opacity="0.25"></circle><circle r="2" cx="742" cy="439" opacity="0.25"></circle><circle r="2" cx="723" cy="449" opacity="0.26"></circle><circle r="2" cx="701" cy="450" opacity="0.26"></circle><circle r="2" cx="680" cy="441" opacity="0.26"></circle><circle r="2" cx="665" cy="424" opacity="0.26"></circle><circle r="2" cx="659" cy="402" opacity="0.26"></circle><circle r="2.5" cx="663" cy="380" opacity="0.26"></circle><circle r="2.5" cx="675" cy="361" opacity="0.26"></circle><circle r="2.5" cx="695" cy="349" opacity="0.27"></circle><circle r="2.5" cx="719" cy="347" opacity="0.27"></circle><circle r="2.5" cx="741" cy="355" opacity="0.27"></circle><circle r="2.5" cx="758" cy="372" opacity="0.27"></circle><circle r="2.5" cx="766" cy="394" opacity="0.27"></circle><circle r="2.5" cx="764" cy="418" opacity="0.27"></circle><circle r="2.5" cx="751" cy="439" opacity="0.28"></circle><circle r="2.5" cx="731" cy="453" opacity="0.28"></circle><circle r="2.5" cx="706" cy="457" opacity="0.28"></circle><circle r="2.5" cx="682" cy="450" opacity="0.28"></circle><circle r="2.5" cx="664" cy="433" opacity="0.28"></circle><circle r="2.5" cx="654" cy="410" opacity="0.28"></circle><circle r="2.5" cx="654" cy="384" opacity="0.28"></circle><circle r="2.5" cx="666" cy="361" opacity="0.29"></circle><circle r="2.5" cx="687" cy="346" opacity="0.29"></circle><circle r="2.5" cx="712" cy="340" opacity="0.29"></circle><circle r="2.5" cx="738" cy="346" opacity="0.29"></circle><circle r="2.5" cx="759" cy="362" opacity="0.29"></circle><circle r="2.5" cx="771" cy="386" opacity="0.29"></circle><circle r="2.5" cx="771" cy="413" opacity="0.29"></circle><circle r="2.5" cx="760" cy="438" opacity="0.30"></circle><circle r="2.5" cx="740" cy="456" opacity="0.30"></circle><circle r="2.5" cx="713" cy="463" opacity="0.30"></circle><circle r="2.5" cx="686" cy="458" opacity="0.30"></circle><circle r="2.5" cx="663" cy="443" opacity="0.30"></circle><circle r="2.5" cx="649" cy="418" opacity="0.30"></circle><circle r="2.5" cx="647" cy="390" opacity="0.31"></circle><circle r="2.5" cx="657" cy="364" opacity="0.31"></circle><circle r="2.5" cx="677" cy="344" opacity="0.31"></circle><circle r="2.5" cx="704" cy="334" opacity="0.31"></circle><circle r="2.5" cx="733" cy="337" opacity="0.31"></circle><circle r="2.5" cx="758" cy="352" opacity="0.31"></circle><circle r="2.5" cx="774" cy="377" opacity="0.31"></circle><circle r="2.5" cx="779" cy="406" opacity="0.32"></circle><circle r="2.5" cx="770" cy="434" opacity="0.32"></circle><circle r="2.5" cx="750" cy="457" opacity="0.32"></circle><circle r="2.5" cx="722" cy="468" opacity="0.32"></circle><circle r="2.5" cx="692" cy="467" opacity="0.32"></circle><circle r="2.5" cx="665" cy="453" opacity="0.32"></circle><circle r="2.5" cx="646" cy="428" opacity="0.32"></circle><circle r="2.5" cx="640" cy="398" opacity="0.33"></circle><circle r="2.5" cx="647" cy="368" opacity="0.33"></circle><circle r="2.5" cx="667" cy="343" opacity="0.33"></circle><circle r="2.5" cx="695" cy="329" opacity="0.33"></circle><circle r="2.5" cx="727" cy="329" opacity="0.33"></circle><circle r="2.5" cx="756" cy="342" opacity="0.33"></circle><circle r="2.5" cx="776" cy="366" opacity="0.34"></circle><circle r="3" cx="785" cy="397" opacity="0.34"></circle><circle r="3" cx="779" cy="429" opacity="0.34"></circle><circle r="3" cx="761" cy="456" opacity="0.34"></circle><circle r="3" cx="732" cy="472" opacity="0.34"></circle><circle r="3" cx="699" cy="475" opacity="0.34"></circle><circle r="3" cx="668" cy="463" opacity="0.34"></circle><circle r="3" cx="645" cy="439" opacity="0.35"></circle><circle r="3" cx="634" cy="407" opacity="0.35"></circle><circle r="3" cx="638" cy="374" opacity="0.35"></circle><circle r="3" cx="656" cy="345" opacity="0.35"></circle><circle r="3" cx="684" cy="326" opacity="0.35"></circle><circle r="3" cx="718" cy="321" opacity="0.35"></circle><circle r="3" cx="751" cy="332" opacity="0.35"></circle><circle r="3" cx="777" cy="355" opacity="0.36"></circle><circle r="3" cx="790" cy="387" opacity="0.36"></circle><circle r="3" cx="788" cy="422" opacity="0.36"></circle><circle r="3" cx="772" cy="454" opacity="0.36"></circle><circle r="3" cx="743" cy="475" opacity="0.36"></circle><circle r="3" cx="708" cy="482" opacity="0.36"></circle><circle r="3" cx="674" cy="473" opacity="0.37"></circle><circle r="3" cx="646" cy="451" opacity="0.37"></circle><circle r="3" cx="630" cy="418" opacity="0.37"></circle><circle r="3" cx="629" cy="382" opacity="0.37"></circle><circle r="3" cx="644" cy="348" opacity="0.37"></circle><circle r="3" cx="673" cy="325" opacity="0.37"></circle><circle r="3" cx="708" cy="315" opacity="0.37"></circle><circle r="3" cx="745" cy="322" opacity="0.38"></circle><circle r="3" cx="776" cy="343" opacity="0.38"></circle><circle r="3" cx="794" cy="376" opacity="0.38"></circle><circle r="3" cx="797" cy="414" opacity="0.38"></circle><circle r="3" cx="783" cy="449" opacity="0.38"></circle><circle r="3" cx="756" cy="476" opacity="0.38"></circle><circle r="3" cx="719" cy="488" opacity="0.39"></circle><circle r="3" cx="681" cy="483" opacity="0.39"></circle><circle r="3" cx="648" cy="463" opacity="0.39"></circle><circle r="3" cx="627" cy="430" opacity="0.39"></circle><circle r="3" cx="622" cy="391" opacity="0.39"></circle><circle r="3" cx="633" cy="354" opacity="0.39"></circle><circle r="3" cx="660" cy="325" opacity="0.39"></circle><circle r="3" cx="697" cy="310" opacity="0.40"></circle><circle r="3" cx="737" cy="312" opacity="0.40"></circle><circle r="3" cx="772" cy="331" opacity="0.40"></circle><circle r="3" cx="796" cy="364" opacity="0.40"></circle><circle r="3" cx="804" cy="403" opacity="0.40"></circle><circle r="3" cx="794" cy="443" opacity="0.40"></circle><circle r="3" cx="768" cy="474" opacity="0.40"></circle><circle r="3" cx="731" cy="492" opacity="0.41"></circle><circle r="3" cx="690" cy="492" opacity="0.41"></circle><circle r="3" cx="652" cy="475" opacity="0.41"></circle><circle r="3.5" cx="626" cy="443" opacity="0.41"></circle><circle r="3.5" cx="615" cy="403" opacity="0.41"></circle><circle r="3.5" cx="623" cy="361" opacity="0.41"></circle><circle r="3.5" cx="647" cy="327" opacity="0.42"></circle><circle r="3.5" cx="684" cy="306" opacity="0.42"></circle><circle r="3.5" cx="727" cy="303" opacity="0.42"></circle><circle r="3.5" cx="767" cy="319" opacity="0.42"></circle><circle r="3.5" cx="796" cy="350" opacity="0.42"></circle><circle r="3.5" cx="810" cy="391" opacity="0.42"></circle><circle r="3.5" cx="804" cy="434" opacity="0.42"></circle><circle r="3.5" cx="781" cy="471" opacity="0.43"></circle><circle r="3.5" cx="744" cy="495" opacity="0.43"></circle><circle r="3.5" cx="701" cy="500" opacity="0.43"></circle><circle r="3.5" cx="659" cy="487" opacity="0.43"></circle><circle r="3.5" cx="626" cy="457" opacity="0.43"></circle><circle r="3.5" cx="610" cy="415" opacity="0.43"></circle><circle r="3.5" cx="613" cy="371" opacity="0.43"></circle><circle r="3.5" cx="634" cy="331" opacity="0.44"></circle><circle r="3.5" cx="671" cy="305" opacity="0.44"></circle><circle r="3.5" cx="715" cy="296" opacity="0.44"></circle><circle r="3.5" cx="759" cy="307" opacity="0.44"></circle><circle r="3.5" cx="794" cy="336" opacity="0.44"></circle><circle r="3.5" cx="814" cy="378" opacity="0.44"></circle><circle r="3.5" cx="814" cy="424" opacity="0.45"></circle><circle r="3.5" cx="794" cy="466" opacity="0.45"></circle><circle r="3.5" cx="759" cy="495" opacity="0.45"></circle><circle r="3.5" cx="713" cy="507" opacity="0.45"></circle><circle r="3.5" cx="667" cy="498" opacity="0.45"></circle><circle r="3.5" cx="629" cy="471" opacity="0.45"></circle><circle r="3.5" cx="607" cy="429" opacity="0.45"></circle><circle r="3.5" cx="604" cy="382" opacity="0.46"></circle><circle r="3.5" cx="621" cy="338" opacity="0.46"></circle><circle r="3.5" cx="656" cy="305" opacity="0.46"></circle><circle r="3.5" cx="702" cy="290" opacity="0.46"></circle><circle r="3.5" cx="750" cy="296" opacity="0.46"></circle><circle r="3.5" cx="790" cy="322" opacity="0.46"></circle><circle r="3.5" cx="816" cy="363" opacity="0.47"></circle><circle r="3.5" cx="822" cy="412" opacity="0.47"></circle><circle r="3.5" cx="807" cy="458" opacity="0.47"></circle><circle r="3.5" cx="773" cy="494" opacity="0.47"></circle><circle r="3.5" cx="727" cy="512" opacity="0.47"></circle><circle r="3.5" cx="678" cy="509" opacity="0.47"></circle><circle r="3.5" cx="634" cy="485" opacity="0.47"></circle><circle r="3.5" cx="605" cy="444" opacity="0.48"></circle><circle r="3.5" cx="596" cy="395" opacity="0.48"></circle><circle r="3.5" cx="609" cy="346" opacity="0.48"></circle><circle r="3.5" cx="641" cy="308" opacity="0.48"></circle><circle r="3.5" cx="687" cy="286" opacity="0.48"></circle><circle r="3.5" cx="738" cy="286" opacity="0.48"></circle><circle r="4" cx="784" cy="308" opacity="0.48"></circle><circle r="4" cx="817" cy="348" opacity="0.49"></circle><circle r="4" cx="829" cy="398" opacity="0.49"></circle><circle r="4" cx="819" cy="449" opacity="0.49"></circle><circle r="4" cx="788" cy="490" opacity="0.49"></circle><circle r="4" cx="743" cy="515" opacity="0.49"></circle><circle r="4" cx="691" cy="518" opacity="0.49"></circle><circle r="4" cx="642" cy="498" opacity="0.50"></circle><circle r="4" cx="606" cy="460" opacity="0.50"></circle><circle r="4" cx="590" cy="410" opacity="0.50"></circle><circle r="4" cx="597" cy="357" opacity="0.50"></circle><circle r="4" cx="626" cy="312" opacity="0.50"></circle><circle r="4" cx="671" cy="284" opacity="0.50"></circle><circle r="4" cx="725" cy="278" opacity="0.50"></circle><circle r="4" cx="776" cy="295" opacity="0.51"></circle><circle r="4" cx="815" cy="332" opacity="0.51"></circle><circle r="4" cx="834" cy="383" opacity="0.51"></circle><circle r="4" cx="830" cy="437" opacity="0.51"></circle><circle r="4" cx="803" cy="484" opacity="0.51"></circle><circle r="4" cx="759" cy="516" opacity="0.51"></circle><circle r="4" cx="705" cy="526" opacity="0.51"></circle><circle r="4" cx="652" cy="512" opacity="0.52"></circle><circle r="4" cx="609" cy="476" opacity="0.52"></circle><circle r="4" cx="586" cy="426" opacity="0.52"></circle><circle r="4" cx="587" cy="370" opacity="0.52"></circle><circle r="4" cx="611" cy="320" opacity="0.52"></circle><circle r="4" cx="655" cy="284" opacity="0.52"></circle><circle r="4" cx="709" cy="271" opacity="0.53"></circle><circle r="4" cx="765" cy="282" opacity="0.53"></circle><circle r="4" cx="810" cy="316" opacity="0.53"></circle><circle r="4" cx="837" cy="366" opacity="0.53"></circle><circle r="4" cx="840" cy="423" opacity="0.53"></circle><circle r="4" cx="818" cy="476" opacity="0.53"></circle><circle r="4" cx="776" cy="515" opacity="0.53"></circle><circle r="4" cx="721" cy="532" opacity="0.54"></circle><circle r="4" cx="664" cy="524" opacity="0.54"></circle><circle r="4" cx="615" cy="492" opacity="0.54"></circle><circle r="4" cx="585" cy="443" opacity="0.54"></circle><circle r="4" cx="578" cy="385" opacity="0.54"></circle><circle r="4" cx="597" cy="329" opacity="0.54"></circle><circle r="4" cx="638" cy="287" opacity="0.55"></circle><circle r="4" cx="693" cy="266" opacity="0.55"></circle><circle r="4" cx="752" cy="271" opacity="0.55"></circle><circle r="4" cx="803" cy="300" opacity="0.55"></circle><circle r="4" cx="837" cy="348" opacity="0.55"></circle><circle r="4" cx="848" cy="407" opacity="0.55"></circle><circle r="4" cx="832" cy="465" opacity="0.55"></circle><circle r="4" cx="793" cy="511" opacity="0.56"></circle><circle r="4" cx="738" cy="536" opacity="0.56"></circle><circle r="4.5" cx="678" cy="535" opacity="0.56"></circle><circle r="4.5" cx="623" cy="508" opacity="0.56"></circle><circle r="4.5" cx="585" cy="461" opacity="0.56"></circle><circle r="4.5" cx="571" cy="401" opacity="0.56"></circle><circle r="4.5" cx="583" cy="341" opacity="0.56"></circle><circle r="4.5" cx="620" cy="292" opacity="0.57"></circle><circle r="4.5" cx="675" cy="263" opacity="0.57"></circle><circle r="4.5" cx="736" cy="260" opacity="0.57"></circle><circle r="4.5" cx="794" cy="284" opacity="0.57"></circle><circle r="4.5" cx="836" cy="330" opacity="0.57"></circle><circle r="4.5" cx="854" cy="390" opacity="0.57"></circle><circle r="4.5" cx="845" cy="452" opacity="0.58"></circle><circle r="4.5" cx="810" cy="504" opacity="0.58"></circle><circle r="4.5" cx="757" cy="537" opacity="0.58"></circle><circle r="4.5" cx="694" cy="544" opacity="0.58"></circle><circle r="4.5" cx="634" cy="523" opacity="0.58"></circle><circle r="4.5" cx="588" cy="479" opacity="0.58"></circle><circle r="4.5" cx="566" cy="419" opacity="0.58"></circle><circle r="4.5" cx="571" cy="355" opacity="0.59"></circle><circle r="4.5" cx="603" cy="300" opacity="0.59"></circle><circle r="4.5" cx="656" cy="263" opacity="0.59"></circle><circle r="4.5" cx="720" cy="252" opacity="0.59"></circle><circle r="4.5" cx="782" cy="270" opacity="0.59"></circle><circle r="4.5" cx="831" cy="312" opacity="0.59"></circle><circle r="4.5" cx="858" cy="371" opacity="0.59"></circle><circle r="4.5" cx="856" cy="437" opacity="0.60"></circle><circle r="4.5" cx="827" cy="495" opacity="0.60"></circle><circle r="4.5" cx="776" cy="536" opacity="0.60"></circle><circle r="4.5" cx="712" cy="551" opacity="0.60"></circle><circle r="4.5" cx="647" cy="537" opacity="0.60"></circle><circle r="4.5" cx="594" cy="497" opacity="0.60"></circle><circle r="4.5" cx="564" cy="438" opacity="0.61"></circle><circle r="4.5" cx="561" cy="372" opacity="0.61"></circle><circle r="4.5" cx="587" cy="310" opacity="0.61"></circle><circle r="4.5" cx="637" cy="266" opacity="0.61"></circle><circle r="4.5" cx="701" cy="246" opacity="0.61"></circle><circle r="4.5" cx="768" cy="256" opacity="0.61"></circle><circle r="4.5" cx="824" cy="294" opacity="0.61"></circle><circle r="4.5" cx="859" cy="352" opacity="0.62"></circle><circle r="4.5" cx="866" cy="419" opacity="0.62"></circle><circle r="4.5" cx="843" cy="484" opacity="0.62"></circle><circle r="4.5" cx="795" cy="532" opacity="0.62"></circle><circle r="4.5" cx="731" cy="556" opacity="0.62"></circle><circle r="4.5" cx="662" cy="550" opacity="0.62"></circle><circle r="4.5" cx="603" cy="515" opacity="0.63"></circle><circle r="4.5" cx="564" cy="459" opacity="0.63"></circle><circle r="4.5" cx="552" cy="390" opacity="0.63"></circle><circle r="4.5" cx="571" cy="323" opacity="0.63"></circle><circle r="4.5" cx="617" cy="271" opacity="0.63"></circle><circle r="5" cx="681" cy="243" opacity="0.63"></circle><circle r="5" cx="751" cy="244" opacity="0.63"></circle><circle r="5" cx="814" cy="276" opacity="0.64"></circle><circle r="5" cx="857" cy="331" opacity="0.64"></circle><circle r="5" cx="873" cy="400" opacity="0.64"></circle><circle r="5" cx="858" cy="469" opacity="0.64"></circle><circle r="5" cx="815" cy="526" opacity="0.64"></circle><circle r="5" cx="751" cy="558" opacity="0.64"></circle><circle r="5" cx="680" cy="561" opacity="0.64"></circle><circle r="5" cx="614" cy="533" opacity="0.65"></circle><circle r="5" cx="567" cy="479" opacity="0.65"></circle><circle r="5" cx="546" cy="410" opacity="0.65"></circle><circle r="5" cx="557" cy="339" opacity="0.65"></circle><circle r="5" cx="598" cy="279" opacity="0.65"></circle><circle r="5" cx="660" cy="242" opacity="0.65"></circle><circle r="5" cx="732" cy="234" opacity="0.66"></circle><circle r="5" cx="801" cy="259" opacity="0.66"></circle><circle r="5" cx="853" cy="310" opacity="0.66"></circle><circle r="5" cx="878" cy="379" opacity="0.66"></circle><circle r="5" cx="871" cy="453" opacity="0.66"></circle><circle r="5" cx="834" cy="516" opacity="0.66"></circle><circle r="5" cx="773" cy="558" opacity="0.66"></circle><circle r="5" cx="700" cy="570" opacity="0.67"></circle><circle r="5" cx="628" cy="549" opacity="0.67"></circle><circle r="5" cx="572" cy="500" opacity="0.67"></circle><circle r="5" cx="543" cy="431" opacity="0.67"></circle><circle r="5" cx="545" cy="357" opacity="0.67"></circle><circle r="5" cx="579" cy="290" opacity="0.67"></circle><circle r="5" cx="638" cy="243" opacity="0.67"></circle><circle r="5" cx="712" cy="227" opacity="0.68"></circle><circle r="5" cx="786" cy="243" opacity="0.68"></circle><circle r="5" cx="846" cy="290" opacity="0.68"></circle><circle r="5" cx="880" cy="358" opacity="0.68"></circle><circle r="5" cx="883" cy="434" opacity="0.68"></circle><circle r="5" cx="852" cy="504" opacity="0.68"></circle><circle r="5" cx="795" cy="554" opacity="0.69"></circle><circle r="5" cx="721" cy="576" opacity="0.69"></circle><circle r="5" cx="645" cy="564" opacity="0.69"></circle><circle r="5" cx="581" cy="520" opacity="0.69"></circle><circle r="5" cx="542" cy="454" opacity="0.69"></circle><circle r="5" cx="535" cy="377" opacity="0.69"></circle><circle r="5" cx="561" cy="303" opacity="0.69"></circle><circle r="5" cx="616" cy="248" opacity="0.70"></circle><circle r="5" cx="690" cy="222" opacity="0.70"></circle><circle r="5" cx="768" cy="230" opacity="0.70"></circle><circle r="5" cx="835" cy="270" opacity="0.70"></circle><circle r="5" cx="879" cy="335" opacity="0.70"></circle><circle r="5" cx="892" cy="413" opacity="0.70"></circle><circle r="5.5" cx="869" cy="489" opacity="0.71"></circle><circle r="5.5" cx="817" cy="548" opacity="0.71"></circle><circle r="5.5" cx="744" cy="579" opacity="0.71"></circle><circle r="5.5" cx="664" cy="577" opacity="0.71"></circle><circle r="5.5" cx="593" cy="540" opacity="0.71"></circle><circle r="5.5" cx="544" cy="477" opacity="0.71"></circle><circle r="5.5" cx="527" cy="398" opacity="0.71"></circle><circle r="5.5" cx="545" cy="320" opacity="0.72"></circle><circle r="5.5" cx="594" cy="256" opacity="0.72"></circle><circle r="5.5" cx="667" cy="220" opacity="0.72"></circle><circle r="5.5" cx="748" cy="218" opacity="0.72"></circle><circle r="5.5" cx="822" cy="250" opacity="0.72"></circle><circle r="5.5" cx="876" cy="312" opacity="0.72"></circle><circle r="5.5" cx="898" cy="390" opacity="0.72"></circle><circle r="5.5" cx="885" cy="471" opacity="0.73"></circle><circle r="5.5" cx="838" cy="538" opacity="0.73"></circle><circle r="5.5" cx="767" cy="580" opacity="0.73"></circle><circle r="5.5" cx="685" cy="587" opacity="0.73"></circle><circle r="5.5" cx="608" cy="559" opacity="0.73"></circle><circle r="5.5" cx="550" cy="500" opacity="0.73"></circle><circle r="5.5" cx="522" cy="422" opacity="0.74"></circle><circle r="5.5" cx="530" cy="339" opacity="0.74"></circle><circle r="5.5" cx="573" cy="267" opacity="0.74"></circle><circle r="5.5" cx="643" cy="221" opacity="0.74"></circle><circle r="5.5" cx="725" cy="209" opacity="0.74"></circle><circle r="5.5" cx="806" cy="233" opacity="0.74"></circle><circle r="5.5" cx="868" cy="289" opacity="0.74"></circle><circle r="5.5" cx="901" cy="366" opacity="0.75"></circle><circle r="5.5" cx="898" cy="451" opacity="0.75"></circle><circle r="5.5" cx="859" cy="526" opacity="0.75"></circle><circle r="5.5" cx="791" cy="577" opacity="0.75"></circle><circle r="5.5" cx="708" cy="595" opacity="0.75"></circle><circle r="5.5" cx="625" cy="576" opacity="0.75"></circle><circle r="5.5" cx="558" cy="523" opacity="0.75"></circle><circle r="5.5" cx="520" cy="446" opacity="0.76"></circle><circle r="5.5" cx="518" cy="360" opacity="0.76"></circle><circle r="5.5" cx="553" cy="282" opacity="0.76"></circle><circle r="5.5" cx="618" cy="225" opacity="0.76"></circle><circle r="5.5" cx="702" cy="202" opacity="0.76"></circle><circle r="5.5" cx="787" cy="216" opacity="0.76"></circle><circle r="5.5" cx="858" cy="266" opacity="0.77"></circle><circle r="5.5" cx="902" cy="341" opacity="0.77"></circle><circle r="5.5" cx="909" cy="428" opacity="0.77"></circle><circle r="5.5" cx="878" cy="510" opacity="0.77"></circle><circle r="5.5" cx="816" cy="571" opacity="0.77"></circle><circle r="5.5" cx="733" cy="600" opacity="0.77"></circle><circle r="5.5" cx="646" cy="591" opacity="0.77"></circle><circle r="5.5" cx="570" cy="545" opacity="0.78"></circle><circle r="5.5" cx="521" cy="471" opacity="0.78"></circle><circle r="6" cx="509" cy="384" opacity="0.78"></circle><circle r="6" cx="534" cy="299" opacity="0.78"></circle><circle r="6" cx="594" cy="233" opacity="0.78"></circle><circle r="6" cx="676" cy="199" opacity="0.78"></circle><circle r="6" cx="765" cy="203" opacity="0.78"></circle><circle r="6" cx="845" cy="244" opacity="0.79"></circle><circle r="6" cx="899" cy="316" opacity="0.79"></circle><circle r="6" cx="917" cy="404" opacity="0.79"></circle><circle r="6" cx="896" cy="491" opacity="0.79"></circle><circle r="6" cx="840" cy="562" opacity="0.79"></circle><circle r="6" cx="759" cy="602" opacity="0.79"></circle><circle r="6" cx="668" cy="603" opacity="0.80"></circle><circle r="6" cx="585" cy="566" opacity="0.80"></circle><circle r="6" cx="526" cy="497" opacity="0.80"></circle><circle r="6" cx="502" cy="409" opacity="0.80"></circle><circle r="6" cx="518" cy="319" opacity="0.80"></circle><circle r="6" cx="570" cy="244" opacity="0.80"></circle><circle r="6" cx="650" cy="199" opacity="0.80"></circle><circle r="6" cx="742" cy="191" opacity="0.81"></circle><circle r="6" cx="828" cy="224" opacity="0.81"></circle><circle r="6" cx="892" cy="290" opacity="0.81"></circle><circle r="6" cx="922" cy="378" opacity="0.81"></circle><circle r="6" cx="912" cy="470" opacity="0.81"></circle><circle r="6" cx="863" cy="549" opacity="0.81"></circle><circle r="6" cx="785" cy="600" opacity="0.82"></circle><circle r="6" cx="693" cy="613" opacity="0.82"></circle><circle r="6" cx="604" cy="586" opacity="0.82"></circle><circle r="6" cx="534" cy="523" opacity="0.82"></circle><circle r="6" cx="499" cy="436" opacity="0.82"></circle><circle r="6" cx="503" cy="342" opacity="0.82"></circle><circle r="6" cx="548" cy="259" opacity="0.82"></circle><circle r="6" cx="623" cy="202" opacity="0.83"></circle><circle r="6" cx="716" cy="183" opacity="0.83"></circle><circle r="6" cx="808" cy="205" opacity="0.83"></circle><circle r="6" cx="882" cy="265" opacity="0.83"></circle><circle r="6" cx="924" cy="351" opacity="0.83"></circle><circle r="6" cx="925" cy="446" opacity="0.83"></circle><circle r="6" cx="885" cy="533" opacity="0.83"></circle><circle r="6" cx="812" cy="595" opacity="0.84"></circle><circle r="6" cx="720" cy="620" opacity="0.84"></circle><circle r="6" cx="625" cy="603" opacity="0.84"></circle><circle r="6" cx="546" cy="547" opacity="0.84"></circle><circle r="6" cx="499" cy="463" opacity="0.84"></circle><circle r="6" cx="492" cy="367" opacity="0.84"></circle><circle r="6" cx="526" cy="276" opacity="0.85"></circle><circle r="6" cx="596" cy="209" opacity="0.85"></circle><circle r="6" cx="689" cy="178" opacity="0.85"></circle><circle r="6" cx="785" cy="189" opacity="0.85"></circle><circle r="6" cx="869" cy="241" opacity="0.85"></circle><circle r="6.5" cx="922" cy="323" opacity="0.85"></circle><circle r="6.5" cx="935" cy="420" opacity="0.85"></circle><circle r="6.5" cx="906" cy="514" opacity="0.86"></circle><circle r="6.5" cx="839" cy="586" opacity="0.86"></circle><circle r="6.5" cx="748" cy="623" opacity="0.86"></circle><circle r="6.5" cx="649" cy="618" opacity="0.86"></circle><circle r="6.5" cx="562" cy="571" opacity="0.86"></circle><circle r="6.5" cx="503" cy="491" opacity="0.86"></circle><circle r="6.5" cx="483" cy="394" opacity="0.86"></circle><circle r="6.5" cx="507" cy="297" opacity="0.87"></circle><circle r="6.5" cx="570" cy="220" opacity="0.87"></circle><circle r="6.5" cx="660" cy="176" opacity="0.87"></circle><circle r="6.5" cx="760" cy="176" opacity="0.87"></circle><circle r="6.5" cx="851" cy="218" opacity="0.87"></circle><circle r="6.5" cx="916" cy="295" opacity="0.87"></circle><circle r="6.5" cx="942" cy="392" opacity="0.88"></circle><circle r="6.5" cx="924" cy="491" opacity="0.88"></circle><circle r="6.5" cx="865" cy="574" opacity="0.88"></circle><circle r="6.5" cx="776" cy="623" opacity="0.88"></circle><circle r="6.5" cx="675" cy="630" opacity="0.88"></circle><circle r="6.5" cx="580" cy="593" opacity="0.88"></circle><circle r="6.5" cx="510" cy="519" opacity="0.88"></circle><circle r="6.5" cx="478" cy="423" opacity="0.89"></circle><circle r="6.5" cx="490" cy="321" opacity="0.89"></circle><circle r="6.5" cx="544" cy="234" opacity="0.89"></circle><circle r="6.5" cx="631" cy="178" opacity="0.89"></circle><circle r="6.5" cx="733" cy="165" opacity="0.89"></circle><circle r="6.5" cx="831" cy="196" opacity="0.89"></circle><circle r="6.5" cx="907" cy="267" opacity="0.90"></circle><circle r="6.5" cx="945" cy="363" opacity="0.90"></circle><circle r="6.5" cx="939" cy="466" opacity="0.90"></circle><circle r="6.5" cx="890" cy="557" opacity="0.90"></circle><circle r="6.5" cx="806" cy="619" opacity="0.90"></circle><circle r="6.5" cx="704" cy="639" opacity="0.90"></circle><circle r="6.5" cx="602" cy="613" opacity="0.90"></circle><circle r="6.5" cx="521" cy="547" opacity="0.91"></circle><circle r="6.5" cx="476" cy="452" opacity="0.91"></circle><circle r="6.5" cx="476" cy="347" opacity="0.91"></circle><circle r="6.5" cx="520" cy="252" opacity="0.91"></circle><circle r="6.5" cx="601" cy="185" opacity="0.91"></circle><circle r="6.5" cx="704" cy="158" opacity="0.91"></circle><circle r="6.5" cx="808" cy="177" opacity="0.91"></circle><circle r="6.5" cx="894" cy="240" opacity="0.92"></circle><circle r="6.5" cx="945" cy="332" opacity="0.92"></circle><circle r="6.5" cx="952" cy="439" opacity="0.92"></circle><circle r="6.5" cx="913" cy="538" opacity="0.92"></circle><circle r="6.5" cx="835" cy="611" opacity="0.92"></circle><circle r="6.5" cx="733" cy="644" opacity="0.92"></circle><circle r="6.5" cx="627" cy="631" opacity="0.93"></circle><circle r="7" cx="536" cy="574" opacity="0.93"></circle><circle r="7" cx="479" cy="483" opacity="0.93"></circle><circle r="7" cx="465" cy="376" opacity="0.93"></circle><circle r="7" cx="498" cy="273" opacity="0.93"></circle><circle r="7" cx="572" cy="195" opacity="0.93"></circle><circle r="7" cx="673" cy="155" opacity="0.93"></circle><circle r="7" cx="781" cy="161" opacity="0.94"></circle><circle r="7" cx="877" cy="214" opacity="0.94"></circle><circle r="7" cx="941" cy="302" opacity="0.94"></circle><circle r="7" cx="961" cy="409" opacity="0.94"></circle><circle r="7" cx="934" cy="515" opacity="0.94"></circle><circle r="7" cx="864" cy="599" opacity="0.94"></circle><circle r="7" cx="765" cy="646" opacity="0.94"></circle><circle r="7" cx="655" cy="645" opacity="0.95"></circle><circle r="7" cx="555" cy="599" opacity="0.95"></circle><circle r="7" cx="485" cy="514" opacity="0.95"></circle><circle r="7" cx="458" cy="407" opacity="0.95"></circle><circle r="7" cx="479" cy="298" opacity="0.95"></circle><circle r="7" cx="544" cy="208" opacity="0.95"></circle><circle r="7" cx="642" cy="155" opacity="0.96"></circle><circle r="7" cx="752" cy="148" opacity="0.96"></circle><circle r="7" cx="856" cy="190" opacity="0.96"></circle><circle r="7" cx="932" cy="271" opacity="0.96"></circle><circle r="7" cx="966" cy="378" opacity="0.96"></circle><circle r="7" cx="952" cy="489" opacity="0.96"></circle><circle r="7" cx="891" cy="583" opacity="0.96"></circle><circle r="7" cx="796" cy="643" opacity="0.97"></circle><circle r="7" cx="685" cy="657" opacity="0.97"></circle><circle r="7" cx="578" cy="621" opacity="0.97"></circle><circle r="7" cx="496" cy="544" opacity="0.97"></circle><circle r="7" cx="455" cy="438" opacity="0.97"></circle><circle r="7" cx="462" cy="325" opacity="0.97"></circle><circle r="7" cx="517" cy="226" opacity="0.98"></circle><circle r="7" cx="610" cy="160" opacity="0.98"></circle><circle r="7" cx="721" cy="139" opacity="0.98"></circle><circle r="7" cx="832" cy="168" opacity="0.98"></circle><circle r="7" cx="919" cy="241" opacity="0.98"></circle><circle r="7" cx="968" cy="345" opacity="0.98"></circle><circle r="7" cx="967" cy="460" opacity="0.98"></circle><circle r="7" cx="917" cy="563" opacity="0.99"></circle><circle r="7" cx="828" cy="636" opacity="0.99"></circle><circle r="7" cx="717" cy="664" opacity="0.99"></circle><circle r="7" cx="603" cy="642" opacity="0.99"></circle><circle r="7" cx="510" cy="573" opacity="0.99"></circle><circle r="7" cx="455" cy="471" opacity="0.99"></circle><circle r="7" cx="449" cy="356" opacity="0.99"></circle><circle r="7" cx="492" cy="248" opacity="1.00"></circle><circle r="7" cx="578" cy="169" opacity="1.00"></circle><circle r="7" cx="689" cy="134" opacity="1.00"></circle></g></svg>