<svg xmlns="http://www.w3.org/2000/svg" version="1.1" xmlns:xlink="http://www.w3.org/1999/xlink" xmlns:svgjs="http://svgjs.dev/svgjs" viewBox="0 0 800 800"><g fill="hsl(175.22, 100%, 39.41%)" transform="matrix(1.8,0,0,1.8,-319.4,-322.4)"><circle r="1.5" cx="405" cy="400" opacity="0.10"></circle><circle r="1.5" cx="404" cy="404" opacity="0.10"></circle><circle r="1.5" cx="401" cy="406" opacity="0.10"></circle><circle r="1.5" cx="397" cy="406" opacity="0.11"></circle><circle r="1.5" cx="393" cy="403" opacity="0.11"></circle><circle r="1.5" cx="392" cy="398" opacity="0.11"></circle><circle r="1.5" cx="395" cy="393" opacity="0.11"></circle><circle r="1.5" cx="400" cy="390" opacity="0.11"></circle><circle r="1.5" cx="407" cy="392" opacity="0.11"></circle><circle r="1.5" cx="411" cy="398" opacity="0.12"></circle><circle r="2" cx="410" cy="406" opacity="0.12"></circle><circle r="2" cx="405" cy="412" opacity="0.12"></circle><circle r="2" cx="396" cy="413" opacity="0.12"></circle><circle r="2" cx="388" cy="408" opacity="0.12"></circle><circle r="2" cx="386" cy="399" opacity="0.13"></circle><circle r="2" cx="389" cy="389" opacity="0.13"></circle><circle r="2" cx="398" cy="384" opacity="0.13"></circle><circle r="2" cx="409" cy="386" opacity="0.13"></circle><circle r="2" cx="416" cy="394" opacity="0.13"></circle><circle r="2" cx="417" cy="406" opacity="0.13"></circle><circle r="2" cx="410" cy="416" opacity="0.14"></circle><circle r="2" cx="397" cy="419" opacity="0.14"></circle><circle r="2" cx="385" cy="414" opacity="0.14"></circle><circle r="2" cx="379" cy="401" opacity="0.14"></circle><circle r="2" cx="383" cy="388" opacity="0.14"></circle><circle r="2" cx="394" cy="379" opacity="0.15"></circle><circle r="2" cx="409" cy="379" opacity="0.15"></circle><circle r="2" cx="421" cy="389" opacity="0.15"></circle><circle r="2" cx="424" cy="405" opacity="0.15"></circle><circle r="2" cx="416" cy="419" opacity="0.15"></circle><circle r="2" cx="401" cy="425" opacity="0.15"></circle><circle r="2" cx="384" cy="421" opacity="0.16"></circle><circle r="2.5" cx="374" cy="406" opacity="0.16"></circle><circle r="2.5" cx="375" cy="388" opacity="0.16"></circle><circle r="2.5" cx="388" cy="375" opacity="0.16"></circle><circle r="2.5" cx="407" cy="372" opacity="0.16"></circle><circle r="2.5" cx="423" cy="382" opacity="0.17"></circle><circle r="2.5" cx="430" cy="401" opacity="0.17"></circle><circle r="2.5" cx="423" cy="420" opacity="0.17"></circle><circle r="2.5" cx="406" cy="431" opacity="0.17"></circle><circle r="2.5" cx="385" cy="428" opacity="0.17"></circle><circle r="2.5" cx="370" cy="413" opacity="0.17"></circle><circle r="2.5" cx="368" cy="391" opacity="0.18"></circle><circle r="2.5" cx="381" cy="372" opacity="0.18"></circle><circle r="2.5" cx="403" cy="365" opacity="0.18"></circle><circle r="2.5" cx="424" cy="374" opacity="0.18"></circle><circle r="2.5" cx="436" cy="395" opacity="0.18"></circle><circle r="2.5" cx="432" cy="419" opacity="0.19"></circle><circle r="2.5" cx="413" cy="435" opacity="0.19"></circle><circle r="2.5" cx="387" cy="436" opacity="0.19"></circle><circle r="2.5" cx="367" cy="421" opacity="0.19"></circle><circle r="2.5" cx="361" cy="395" opacity="0.19"></circle><circle r="2.5" cx="372" cy="371" opacity="0.19"></circle><circle r="2.5" cx="396" cy="359" opacity="0.20"></circle><circle r="2.5" cx="423" cy="365" opacity="0.20"></circle><circle r="3" cx="441" cy="388" opacity="0.20"></circle><circle r="3" cx="440" cy="416" opacity="0.20"></circle><circle r="3" cx="421" cy="438" opacity="0.20"></circle><circle r="3" cx="392" cy="444" opacity="0.20"></circle><circle r="3" cx="366" cy="430" opacity="0.21"></circle><circle r="3" cx="354" cy="402" opacity="0.21"></circle><circle r="3" cx="363" cy="372" opacity="0.21"></circle><circle r="3" cx="388" cy="354" opacity="0.21"></circle><circle r="3" cx="420" cy="356" opacity="0.21"></circle><circle r="3" cx="443" cy="378" opacity="0.22"></circle><circle r="3" cx="448" cy="411" opacity="0.22"></circle><circle r="3" cx="431" cy="439" opacity="0.22"></circle><circle r="3" cx="400" cy="451" opacity="0.22"></circle><circle r="3" cx="368" cy="440" opacity="0.22"></circle><circle r="3" cx="349" cy="411" opacity="0.22"></circle><circle r="3" cx="353" cy="376" opacity="0.23"></circle><circle r="3" cx="379" cy="351" opacity="0.23"></circle><circle r="3" cx="414" cy="348" opacity="0.23"></circle><circle r="3" cx="444" cy="368" opacity="0.23"></circle><circle r="3" cx="455" cy="403" opacity="0.23"></circle><circle r="3" cx="442" cy="438" opacity="0.24"></circle><circle r="3" cx="409" cy="456" opacity="0.24"></circle><circle r="3" cx="371" cy="450" opacity="0.24"></circle><circle r="3.5" cx="346" cy="421" opacity="0.24"></circle><circle r="3.5" cx="344" cy="382" opacity="0.24"></circle><circle r="3.5" cx="368" cy="350" opacity="0.24"></circle><circle r="3.5" cx="406" cy="340" opacity="0.25"></circle><circle r="3.5" cx="443" cy="357" opacity="0.25"></circle><circle r="3.5" cx="461" cy="393" opacity="0.25"></circle><circle r="3.5" cx="452" cy="434" opacity="0.25"></circle><circle r="3.5" cx="420" cy="460" opacity="0.25"></circle><circle r="3.5" cx="378" cy="459" opacity="0.26"></circle><circle r="3.5" cx="345" cy="432" opacity="0.26"></circle><circle r="3.5" cx="336" cy="390" opacity="0.26"></circle><circle r="3.5" cx="356" cy="352" opacity="0.26"></circle><circle r="3.5" cx="396" cy="334" opacity="0.26"></circle><circle r="3.5" cx="439" cy="346" opacity="0.26"></circle><circle r="3.5" cx="465" cy="382" opacity="0.27"></circle><circle r="3.5" cx="463" cy="427" opacity="0.27"></circle><circle r="3.5" cx="432" cy="461" opacity="0.27"></circle><circle r="3.5" cx="386" cy="468" opacity="0.27"></circle><circle r="3.5" cx="346" cy="445" opacity="0.27"></circle><circle r="3.5" cx="329" cy="401" opacity="0.28"></circle><circle r="3.5" cx="344" cy="356" opacity="0.28"></circle><circle r="3.5" cx="384" cy="329" opacity="0.28"></circle><circle r="4" cx="432" cy="334" opacity="0.28"></circle><circle r="4" cx="467" cy="369" opacity="0.28"></circle><circle r="4" cx="472" cy="418" opacity="0.28"></circle><circle r="4" cx="445" cy="460" opacity="0.29"></circle><circle r="4" cx="397" cy="476" opacity="0.29"></circle><circle r="4" cx="350" cy="458" opacity="0.29"></circle><circle r="4" cx="324" cy="414" opacity="0.29"></circle><circle r="4" cx="332" cy="362" opacity="0.29"></circle><circle r="4" cx="370" cy="327" opacity="0.30"></circle><circle r="4" cx="423" cy="324" opacity="0.30"></circle><circle r="4" cx="466" cy="355" opacity="0.30"></circle><circle r="4" cx="480" cy="407" opacity="0.30"></circle><circle r="4" cx="459" cy="456" opacity="0.30"></circle><circle r="4" cx="411" cy="481" opacity="0.30"></circle><circle r="4" cx="357" cy="470" opacity="0.31"></circle><circle r="4" cx="322" cy="428" opacity="0.31"></circle><circle r="4" cx="321" cy="372" opacity="0.31"></circle><circle r="4" cx="356" cy="328" opacity="0.31"></circle><circle r="4" cx="411" cy="315" opacity="0.31"></circle><circle r="4" cx="462" cy="341" opacity="0.32"></circle><circle r="4" cx="486" cy="393" opacity="0.32"></circle><circle r="4" cx="472" cy="449" opacity="0.32"></circle><circle r="4" cx="425" cy="484" opacity="0.32"></circle><circle r="4.5" cx="366" cy="482" opacity="0.32"></circle><circle r="4.5" cx="322" cy="443" opacity="0.32"></circle><circle r="4.5" cx="311" cy="384" opacity="0.33"></circle><circle r="4.5" cx="341" cy="331" opacity="0.33"></circle><circle r="4.5" cx="397" cy="309" opacity="0.33"></circle><circle r="4.5" cx="455" cy="327" opacity="0.33"></circle><circle r="4.5" cx="490" cy="378" opacity="0.33"></circle><circle r="4.5" cx="485" cy="439" opacity="0.34"></circle><circle r="4.5" cx="441" cy="484" opacity="0.34"></circle><circle r="4.5" cx="379" cy="492" opacity="0.34"></circle><circle r="4.5" cx="325" cy="459" opacity="0.34"></circle><circle r="4.5" cx="304" cy="399" opacity="0.34"></circle><circle r="4.5" cx="326" cy="338" opacity="0.34"></circle><circle r="4.5" cx="381" cy="304" opacity="0.35"></circle><circle r="4.5" cx="446" cy="313" opacity="0.35"></circle><circle r="4.5" cx="491" cy="361" opacity="0.35"></circle><circle r="4.5" cx="496" cy="427" opacity="0.35"></circle><circle r="4.5" cx="458" cy="482" opacity="0.35"></circle><circle r="4.5" cx="394" cy="501" opacity="0.36"></circle><circle r="4.5" cx="331" cy="475" opacity="0.36"></circle><circle r="4.5" cx="299" cy="415" opacity="0.36"></circle><circle r="4.5" cx="311" cy="348" opacity="0.36"></circle><circle r="4.5" cx="363" cy="303" opacity="0.36"></circle><circle r="5" cx="433" cy="301" opacity="0.36"></circle><circle r="5" cx="488" cy="343" opacity="0.37"></circle><circle r="5" cx="505" cy="411" opacity="0.37"></circle><circle r="5" cx="475" cy="475" opacity="0.37"></circle><circle r="5" cx="411" cy="506" opacity="0.37"></circle><circle r="5" cx="341" cy="490" opacity="0.37"></circle><circle r="5" cx="297" cy="433" opacity="0.37"></circle><circle r="5" cx="298" cy="361" opacity="0.38"></circle><circle r="5" cx="345" cy="305" opacity="0.38"></circle><circle r="5" cx="417" cy="291" opacity="0.38"></circle><circle r="5" cx="482" cy="326" opacity="0.38"></circle><circle r="5" cx="512" cy="394" opacity="0.38"></circle><circle r="5" cx="491" cy="466" opacity="0.39"></circle><circle r="5" cx="430" cy="509" opacity="0.39"></circle><circle r="5" cx="354" cy="504" opacity="0.39"></circle><circle r="5" cx="298" cy="452" opacity="0.39"></circle><circle r="5" cx="287" cy="377" opacity="0.39"></circle><circle r="5" cx="327" cy="310" opacity="0.39"></circle><circle r="5" cx="399" cy="283" opacity="0.40"></circle><circle r="5" cx="473" cy="308" opacity="0.40"></circle><circle r="5" cx="515" cy="375" opacity="0.40"></circle><circle r="5" cx="506" cy="453" opacity="0.40"></circle><circle r="5" cx="450" cy="508" opacity="0.40"></circle><circle r="5.5" cx="370" cy="516" opacity="0.41"></circle><circle r="5.5" cx="303" cy="472" opacity="0.41"></circle><circle r="5.5" cx="279" cy="395" opacity="0.41"></circle><circle r="5.5" cx="308" cy="319" opacity="0.41"></circle><circle r="5.5" cx="379" cy="279" opacity="0.41"></circle><circle r="5.5" cx="460" cy="292" opacity="0.41"></circle><circle r="5.5" cx="515" cy="354" opacity="0.42"></circle><circle r="5.5" cx="519" cy="437" opacity="0.42"></circle><circle r="5.5" cx="470" cy="504" opacity="0.42"></circle><circle r="5.5" cx="389" cy="526" opacity="0.42"></circle><circle r="5.5" cx="312" cy="491" opacity="0.42"></circle><circle r="5.5" cx="274" cy="416" opacity="0.43"></circle><circle r="5.5" cx="291" cy="332" opacity="0.43"></circle><circle r="5.5" cx="358" cy="278" opacity="0.43"></circle><circle r="5.5" cx="444" cy="278" opacity="0.43"></circle><circle r="5.5" cx="511" cy="333" opacity="0.43"></circle><circle r="5.5" cx="530" cy="418" opacity="0.43"></circle><circle r="5.5" cx="490" cy="496" opacity="0.44"></circle><circle r="5.5" cx="410" cy="532" opacity="0.44"></circle><circle r="5.5" cx="324" cy="509" opacity="0.44"></circle><circle r="5.5" cx="272" cy="438" opacity="0.44"></circle><circle r="5.5" cx="276" cy="348" opacity="0.44"></circle><circle r="6" cx="336" cy="281" opacity="0.45"></circle><circle r="6" cx="425" cy="267" opacity="0.45"></circle><circle r="6" cx="504" cy="312" opacity="0.45"></circle><circle r="6" cx="537" cy="396" opacity="0.45"></circle><circle r="6" cx="509" cy="484" opacity="0.45"></circle><circle r="6" cx="433" cy="534" opacity="0.45"></circle><circle r="6" cx="341" cy="526" opacity="0.46"></circle><circle r="6" cx="274" cy="461" opacity="0.46"></circle><circle r="6" cx="263" cy="368" opacity="0.46"></circle><circle r="6" cx="314" cy="289" opacity="0.46"></circle><circle r="6" cx="403" cy="258" opacity="0.46"></circle><circle r="6" cx="492" cy="291" opacity="0.47"></circle><circle r="6" cx="540" cy="373" opacity="0.47"></circle><circle r="6" cx="527" cy="468" opacity="0.47"></circle><circle r="6" cx="456" cy="533" opacity="0.47"></circle><circle r="6" cx="360" cy="539" opacity="0.47"></circle><circle r="6" cx="281" cy="484" opacity="0.47"></circle><circle r="6" cx="254" cy="390" opacity="0.48"></circle><circle r="6" cx="292" cy="300" opacity="0.48"></circle><circle r="6" cx="379" cy="254" opacity="0.48"></circle><circle r="6" cx="476" cy="272" opacity="0.48"></circle><circle r="6" cx="540" cy="348" opacity="0.48"></circle><circle r="6" cx="542" cy="448" opacity="0.49"></circle><circle r="6.5" cx="480" cy="527" opacity="0.49"></circle><circle r="6.5" cx="383" cy="550" opacity="0.49"></circle><circle r="6.5" cx="291" cy="506" opacity="0.49"></circle><circle r="6.5" cx="248" cy="414" opacity="0.49"></circle><circle r="6.5" cx="272" cy="315" opacity="0.49"></circle><circle r="6.5" cx="354" cy="253" opacity="0.50"></circle><circle r="6.5" cx="457" cy="256" opacity="0.50"></circle><circle r="6.5" cx="535" cy="323" opacity="0.50"></circle><circle r="6.5" cx="554" cy="425" opacity="0.50"></circle><circle r="6.5" cx="504" cy="517" opacity="0.50"></circle><circle r="6.5" cx="407" cy="557" opacity="0.51"></circle><circle r="6.5" cx="307" cy="527" opacity="0.51"></circle><circle r="6.5" cx="247" cy="440" opacity="0.51"></circle><circle r="6.5" cx="255" cy="335" opacity="0.51"></circle><circle r="6.5" cx="328" cy="257" opacity="0.51"></circle><circle r="6.5" cx="434" cy="243" opacity="0.51"></circle><circle r="6.5" cx="526" cy="299" opacity="0.52"></circle><circle r="6.5" cx="562" cy="400" opacity="0.52"></circle><circle r="6.5" cx="527" cy="502" opacity="0.52"></circle><circle r="6.5" cx="434" cy="560" opacity="0.52"></circle><circle r="6.5" cx="326" cy="546" opacity="0.52"></circle><circle r="6.5" cx="250" cy="467" opacity="0.53"></circle><circle r="6.5" cx="240" cy="358" opacity="0.53"></circle><circle r="7" cx="302" cy="266" opacity="0.53"></circle><circle r="7" cx="408" cy="233" opacity="0.53"></circle><circle r="7" cx="511" cy="275" opacity="0.53"></circle><circle r="7" cx="566" cy="373" opacity="0.53"></circle><circle r="7" cx="547" cy="483" opacity="0.54"></circle><circle r="7" cx="462" cy="558" opacity="0.54"></circle><circle r="7" cx="349" cy="562" opacity="0.54"></circle><circle r="7" cx="257" cy="494" opacity="0.54"></circle><circle r="7" cx="229" cy="384" opacity="0.54"></circle><circle r="7" cx="277" cy="279" opacity="0.55"></circle><circle r="7" cx="380" cy="228" opacity="0.55"></circle><circle r="7" cx="493" cy="253" opacity="0.55"></circle><circle r="7" cx="565" cy="344" opacity="0.55"></circle><circle r="7" cx="564" cy="461" opacity="0.55"></circle><circle r="7" cx="490" cy="551" opacity="0.55"></circle><circle r="7" cx="375" cy="575" opacity="0.56"></circle><circle r="7" cx="270" cy="520" opacity="0.56"></circle><circle r="7" cx="223" cy="412" opacity="0.56"></circle><circle r="7" cx="254" cy="297" opacity="0.56"></circle><circle r="7" cx="351" cy="228" opacity="0.56"></circle><circle r="7" cx="470" cy="235" opacity="0.56"></circle><circle r="7" cx="559" cy="315" opacity="0.57"></circle><circle r="7.5" cx="578" cy="434" opacity="0.57"></circle><circle r="7.5" cx="517" cy="539" opacity="0.57"></circle><circle r="7.5" cx="404" cy="582" opacity="0.57"></circle><circle r="7.5" cx="288" cy="545" opacity="0.57"></circle><circle r="7.5" cx="221" cy="442" opacity="0.58"></circle><circle r="7.5" cx="234" cy="320" opacity="0.58"></circle><circle r="7.5" cx="321" cy="233" opacity="0.58"></circle><circle r="7.5" cx="444" cy="219" opacity="0.58"></circle><circle r="7.5" cx="548" cy="287" opacity="0.58"></circle><circle r="7.5" cx="587" cy="405" opacity="0.58"></circle><circle r="7.5" cx="543" cy="522" opacity="0.59"></circle><circle r="7.5" cx="434" cy="585" opacity="0.59"></circle><circle r="7.5" cx="310" cy="566" opacity="0.59"></circle><circle r="7.5" cx="225" cy="473" opacity="0.59"></circle><circle r="7.5" cx="217" cy="346" opacity="0.59"></circle><circle r="7.5" cx="291" cy="243" opacity="0.60"></circle><circle r="7.5" cx="414" cy="209" opacity="0.60"></circle><circle r="7.5" cx="532" cy="260" opacity="0.60"></circle><circle r="7.5" cx="592" cy="374" opacity="0.60"></circle><circle r="7.5" cx="566" cy="501" opacity="0.60"></circle><circle r="7.5" cx="466" cy="583" opacity="0.60"></circle><circle r="7.5" cx="336" cy="585" opacity="0.61"></circle><circle r="7.5" cx="234" cy="504" opacity="0.61"></circle><circle r="8" cx="205" cy="376" opacity="0.61"></circle><circle r="8" cx="263" cy="258" opacity="0.61"></circle><circle r="8" cx="383" cy="203" opacity="0.61"></circle><circle r="8" cx="511" cy="235" opacity="0.62"></circle><circle r="8" cx="591" cy="341" opacity="0.62"></circle><circle r="8" cx="586" cy="474" opacity="0.62"></circle><circle r="8" cx="498" cy="575" opacity="0.62"></circle><circle r="8" cx="366" cy="599" opacity="0.62"></circle><circle r="8" cx="248" cy="533" opacity="0.62"></circle><circle r="8" cx="197" cy="408" opacity="0.63"></circle><circle r="8" cx="237" cy="278" opacity="0.63"></circle><circle r="8" cx="349" cy="202" opacity="0.63"></circle><circle r="8" cx="485" cy="214" opacity="0.63"></circle><circle r="8" cx="584" cy="308" opacity="0.63"></circle><circle r="8" cx="601" cy="445" opacity="0.64"></circle><circle r="8" cx="529" cy="562" opacity="0.64"></circle><circle r="8" cx="398" cy="608" opacity="0.64"></circle><circle r="8" cx="268" cy="561" opacity="0.64"></circle><circle r="8" cx="195" cy="442" opacity="0.64"></circle><circle r="8" cx="214" cy="304" opacity="0.64"></circle><circle r="8" cx="315" cy="207" opacity="0.65"></circle><circle r="8" cx="455" cy="196" opacity="0.65"></circle><circle r="8" cx="572" cy="276" opacity="0.65"></circle><circle r="8.5" cx="612" cy="412" opacity="0.65"></circle><circle r="8.5" cx="558" cy="543" opacity="0.65"></circle><circle r="8.5" cx="433" cy="611" opacity="0.66"></circle><circle r="8.5" cx="293" cy="586" opacity="0.66"></circle><circle r="8.5" cx="199" cy="477" opacity="0.66"></circle><circle r="8.5" cx="195" cy="333" opacity="0.66"></circle><circle r="8.5" cx="282" cy="219" opacity="0.66"></circle><circle r="8.5" cx="422" cy="184" opacity="0.66"></circle><circle r="8.5" cx="554" cy="246" opacity="0.67"></circle><circle r="8.5" cx="617" cy="376" opacity="0.67"></circle><circle r="8.5" cx="584" cy="519" opacity="0.67"></circle><circle r="8.5" cx="469" cy="609" opacity="0.67"></circle><circle r="8.5" cx="322" cy="606" opacity="0.67"></circle><circle r="8.5" cx="209" cy="512" opacity="0.68"></circle><circle r="8.5" cx="181" cy="367" opacity="0.68"></circle><circle r="8.5" cx="250" cy="236" opacity="0.68"></circle><circle r="8.5" cx="386" cy="177" opacity="0.68"></circle><circle r="8.5" cx="530" cy="218" opacity="0.68"></circle><circle r="8.5" cx="616" cy="340" opacity="0.68"></circle><circle r="8.5" cx="607" cy="490" opacity="0.69"></circle><circle r="8.5" cx="505" cy="600" opacity="0.69"></circle><circle r="8.5" cx="355" cy="622" opacity="0.69"></circle><circle r="8.5" cx="225" cy="545" opacity="0.69"></circle><circle r="9" cx="172" cy="403" opacity="0.69"></circle><circle r="9" cx="220" cy="259" opacity="0.70"></circle><circle r="9" cx="349" cy="176" opacity="0.70"></circle><circle r="9" cx="501" cy="193" opacity="0.70"></circle><circle r="9" cx="609" cy="303" opacity="0.70"></circle><circle r="9" cx="625" cy="456" opacity="0.70"></circle><circle r="9" cx="540" cy="585" opacity="0.70"></circle><circle r="9" cx="392" cy="633" opacity="0.71"></circle><circle r="9" cx="247" cy="576" opacity="0.71"></circle><circle r="9" cx="169" cy="441" opacity="0.71"></circle><circle r="9" cx="194" cy="287" opacity="0.71"></circle><circle r="9" cx="311" cy="182" opacity="0.71"></circle><circle r="9" cx="468" cy="174" opacity="0.72"></circle><circle r="9" cx="596" cy="267" opacity="0.72"></circle><circle r="9" cx="637" cy="419" opacity="0.72"></circle><circle r="9" cx="572" cy="564" opacity="0.72"></circle><circle r="9" cx="431" cy="637" opacity="0.72"></circle><circle r="9" cx="274" cy="604" opacity="0.72"></circle><circle r="9" cx="173" cy="480" opacity="0.73"></circle><circle r="9" cx="173" cy="320" opacity="0.73"></circle><circle r="9" cx="274" cy="194" opacity="0.73"></circle><circle r="9" cx="431" cy="160" opacity="0.73"></circle><circle r="9.5" cx="576" cy="232" opacity="0.73"></circle><circle r="9.5" cx="643" cy="380" opacity="0.73"></circle><circle r="9.5" cx="602" cy="538" opacity="0.74"></circle><circle r="9.5" cx="471" cy="635" opacity="0.74"></circle><circle r="9.5" cx="307" cy="627" opacity="0.74"></circle><circle r="9.5" cx="184" cy="519" opacity="0.74"></circle><circle r="9.5" cx="157" cy="356" opacity="0.74"></circle><circle r="9.5" cx="238" cy="213" opacity="0.75"></circle><circle r="9.5" cx="392" cy="152" opacity="0.75"></circle><circle r="9.5" cx="550" cy="201" opacity="0.75"></circle><circle r="9.5" cx="642" cy="340" opacity="0.75"></circle><circle r="9.5" cx="627" cy="506" opacity="0.75"></circle><circle r="9.5" cx="510" cy="626" opacity="0.75"></circle><circle r="9.5" cx="344" cy="645" opacity="0.76"></circle><circle r="9.5" cx="201" cy="556" opacity="0.76"></circle><circle r="9.5" cx="147" cy="396" opacity="0.76"></circle><circle r="9.5" cx="205" cy="238" opacity="0.76"></circle><circle r="9.5" cx="350" cy="150" opacity="0.76"></circle><circle r="9.5" cx="519" cy="174" opacity="0.77"></circle><circle r="9.5" cx="635" cy="299" opacity="0.77"></circle><circle r="9.5" cx="647" cy="469" opacity="0.77"></circle><circle r="9.5" cx="549" cy="610" opacity="0.77"></circle><circle r="9.5" cx="384" cy="657" opacity="0.77"></circle><circle r="10" cx="225" cy="591" opacity="0.77"></circle><circle r="10" cx="144" cy="438" opacity="0.78"></circle><circle r="10" cx="176" cy="268" opacity="0.78"></circle><circle r="10" cx="308" cy="156" opacity="0.78"></circle><circle r="10" cx="482" cy="152" opacity="0.78"></circle><circle r="10" cx="621" cy="258" opacity="0.78"></circle><circle r="10" cx="661" cy="429" opacity="0.79"></circle><circle r="10" cx="586" cy="587" opacity="0.79"></circle><circle r="10" cx="427" cy="663" opacity="0.79"></circle><circle r="10" cx="255" cy="622" opacity="0.79"></circle><circle r="10" cx="147" cy="482" opacity="0.79"></circle><circle r="10" cx="152" cy="304" opacity="0.79"></circle><circle r="10" cx="267" cy="169" opacity="0.80"></circle><circle r="10" cx="442" cy="136" opacity="0.80"></circle><circle r="10" cx="599" cy="220" opacity="0.80"></circle><circle r="10" cx="668" cy="386" opacity="0.80"></circle><circle r="10" cx="618" cy="558" opacity="0.80"></circle><circle r="10" cx="471" cy="661" opacity="0.81"></circle><circle r="10" cx="291" cy="648" opacity="0.81"></circle><circle r="10" cx="159" cy="524" opacity="0.81"></circle><circle r="10" cx="133" cy="345" opacity="0.81"></circle><circle r="10" cx="227" cy="189" opacity="0.81"></circle><circle r="10" cx="398" cy="126" opacity="0.81"></circle><circle r="10.5" cx="571" cy="186" opacity="0.82"></circle><circle r="10.5" cx="669" cy="341" opacity="0.82"></circle><circle r="10.5" cx="647" cy="523" opacity="0.82"></circle><circle r="10.5" cx="515" cy="651" opacity="0.82"></circle><circle r="10.5" cx="331" cy="668" opacity="0.82"></circle><circle r="10.5" cx="177" cy="566" opacity="0.83"></circle><circle r="10.5" cx="122" cy="388" opacity="0.83"></circle><circle r="10.5" cx="190" cy="216" opacity="0.83"></circle><circle r="10.5" cx="353" cy="124" opacity="0.83"></circle><circle r="10.5" cx="537" cy="155" opacity="0.83"></circle><circle r="10.5" cx="661" cy="296" opacity="0.83"></circle><circle r="10.5" cx="669" cy="483" opacity="0.84"></circle><circle r="10.5" cx="557" cy="635" opacity="0.84"></circle><circle r="10.5" cx="375" cy="682" opacity="0.84"></circle><circle r="10.5" cx="203" cy="604" opacity="0.84"></circle><circle r="10.5" cx="118" cy="435" opacity="0.84"></circle><circle r="10.5" cx="158" cy="249" opacity="0.85"></circle><circle r="10.5" cx="307" cy="130" opacity="0.85"></circle><circle r="10.5" cx="498" cy="131" opacity="0.85"></circle><circle r="10.5" cx="646" cy="252" opacity="0.85"></circle><circle r="10.5" cx="685" cy="439" opacity="0.85"></circle><circle r="10.5" cx="598" cy="610" opacity="0.85"></circle><circle r="11" cx="421" cy="688" opacity="0.86"></circle><circle r="11" cx="235" cy="638" opacity="0.86"></circle><circle r="11" cx="121" cy="482" opacity="0.86"></circle><circle r="11" cx="131" cy="288" opacity="0.86"></circle><circle r="11" cx="261" cy="143" opacity="0.86"></circle><circle r="11" cx="454" cy="112" opacity="0.87"></circle><circle r="11" cx="623" cy="210" opacity="0.87"></circle><circle r="11" cx="694" cy="392" opacity="0.87"></circle><circle r="11" cx="634" cy="579" opacity="0.87"></circle><circle r="11" cx="469" cy="687" opacity="0.87"></circle><circle r="11" cx="273" cy="668" opacity="0.87"></circle><circle r="11" cx="133" cy="529" opacity="0.88"></circle><circle r="11" cx="111" cy="332" opacity="0.88"></circle><circle r="11" cx="217" cy="164" opacity="0.88"></circle><circle r="11" cx="406" cy="101" opacity="0.88"></circle><circle r="11" cx="593" cy="171" opacity="0.88"></circle><circle r="11" cx="695" cy="343" opacity="0.89"></circle><circle r="11" cx="665" cy="542" opacity="0.89"></circle><circle r="11" cx="518" cy="678" opacity="0.89"></circle><circle r="11" cx="317" cy="690" opacity="0.89"></circle><circle r="11" cx="152" cy="574" opacity="0.89"></circle><circle r="11" cx="97" cy="379" opacity="0.89"></circle><circle r="11" cx="177" cy="193" opacity="0.90"></circle><circle r="11.5" cx="357" cy="98" opacity="0.90"></circle><circle r="11.5" cx="557" cy="138" opacity="0.90"></circle><circle r="11.5" cx="687" cy="294" opacity="0.90"></circle><circle r="11.5" cx="691" cy="499" opacity="0.90"></circle><circle r="11.5" cx="564" cy="660" opacity="0.91"></circle><circle r="11.5" cx="364" cy="706" opacity="0.91"></circle><circle r="11.5" cx="179" cy="616" opacity="0.91"></circle><circle r="11.5" cx="92" cy="429" opacity="0.91"></circle><circle r="11.5" cx="141" cy="229" opacity="0.91"></circle><circle r="11.5" cx="307" cy="103" opacity="0.91"></circle><circle r="11.5" cx="514" cy="110" opacity="0.92"></circle><circle r="11.5" cx="672" cy="246" opacity="0.92"></circle><circle r="11.5" cx="709" cy="451" opacity="0.92"></circle><circle r="11.5" cx="608" cy="634" opacity="0.92"></circle><circle r="11.5" cx="415" cy="714" opacity="0.92"></circle><circle r="11.5" cx="214" cy="654" opacity="0.92"></circle><circle r="11.5" cx="95" cy="480" opacity="0.93"></circle><circle r="11.5" cx="111" cy="270" opacity="0.93"></circle><circle r="11.5" cx="257" cy="117" opacity="0.93"></circle><circle r="11.5" cx="467" cy="89" opacity="0.93"></circle><circle r="11.5" cx="648" cy="200" opacity="0.93"></circle><circle r="11.5" cx="719" cy="400" opacity="0.94"></circle><circle r="11.5" cx="649" cy="601" opacity="0.94"></circle><circle r="12" cx="467" cy="713" opacity="0.94"></circle><circle r="12" cx="255" cy="686" opacity="0.94"></circle><circle r="12" cx="106" cy="532" opacity="0.94"></circle><circle r="12" cx="88" cy="317" opacity="0.94"></circle><circle r="12" cx="209" cy="139" opacity="0.95"></circle><circle r="12" cx="416" cy="76" opacity="0.95"></circle><circle r="12" cx="616" cy="158" opacity="0.95"></circle><circle r="12" cx="721" cy="347" opacity="0.95"></circle><circle r="12" cx="683" cy="561" opacity="0.95"></circle><circle r="12" cx="519" cy="704" opacity="0.96"></circle><circle r="12" cx="301" cy="712" opacity="0.96"></circle><circle r="12" cx="126" cy="581" opacity="0.96"></circle><circle r="12" cx="73" cy="369" opacity="0.96"></circle><circle r="12" cx="165" cy="169" opacity="0.96"></circle><circle r="12" cx="362" cy="72" opacity="0.96"></circle><circle r="12" cx="577" cy="121" opacity="0.97"></circle><circle r="12" cx="714" cy="294" opacity="0.97"></circle><circle r="12" cx="711" cy="515" opacity="0.97"></circle><circle r="12" cx="570" cy="686" opacity="0.97"></circle><circle r="12" cx="352" cy="730" opacity="0.97"></circle><circle r="12" cx="155" cy="627" opacity="0.98"></circle><circle r="12" cx="66" cy="422" opacity="0.98"></circle><circle r="12" cx="126" cy="207" opacity="0.98"></circle><circle r="12.5" cx="308" cy="77" opacity="0.98"></circle><circle r="12.5" cx="532" cy="90" opacity="0.98"></circle><circle r="12.5" cx="698" cy="242" opacity="0.98"></circle><circle r="12.5" cx="732" cy="464" opacity="0.99"></circle><circle r="12.5" cx="618" cy="659" opacity="0.99"></circle><circle r="12.5" cx="407" cy="739" opacity="0.99"></circle><circle r="12.5" cx="191" cy="669" opacity="0.99"></circle><circle r="12.5" cx="68" cy="478" opacity="0.99"></circle><circle r="12.5" cx="92" cy="252" opacity="1.00"></circle><circle r="12.5" cx="254" cy="90" opacity="1.00"></circle><circle r="12.5" cx="481" cy="67" opacity="1.00"></circle></g></svg>